<svg version="1.1" xmlns="http://www.w3.org/2000/svg" viewBox="0 0 2797.3213878813244 1407.2857142857142" width="2797.3213878813244" height="1407.2857142857142">
  <!-- svg-source:excalidraw -->
  
  <defs>
    <style class="style-fonts">
      @font-face {
        font-family: "Virgil";
        src: url("https://excalidraw.com/Virgil.woff2");
      }
      @font-face {
        font-family: "Cascadia";
        src: url("https://excalidraw.com/Cascadia.woff2");
      }
      @font-face {
        font-family: "Assistant";
        src: url("https://excalidraw.com/Assistant-Regular.woff2");
      }
    </style>
    
  </defs>
  <rect x="0" y="0" width="2797.3213878813244" height="1407.2857142857142" fill="#ffffff"></rect><g stroke-linecap="round" transform="translate(10 295.5714285714283) rotate(0 183 364.5)"><path d="M32 0 C126.85 2.47, 219.98 2.53, 334 0 M32 0 C113.37 -0.5, 193.42 -0.35, 334 0 M334 0 C355.51 0.11, 365.62 9.52, 366 32 M334 0 C355.88 -1.9, 367.92 8.99, 366 32 M366 32 C365.82 293.75, 366.06 555.87, 366 697 M366 32 C364.36 295.88, 364.54 559.46, 366 697 M366 697 C364.85 716.39, 356 729.3, 334 729 M366 697 C368.15 720.28, 355.11 728.93, 334 729 M334 729 C271.44 726.66, 207.88 726.63, 32 729 M334 729 C264.58 729.15, 193.3 728.84, 32 729 M32 729 C12.29 728.69, 1.68 720.26, 0 697 M32 729 C8.47 727.6, -0.61 717.04, 0 697 M0 697 C1.81 514.6, 1.65 333.69, 0 32 M0 697 C1.79 473.76, 2.29 249.95, 0 32 M0 32 C-0.92 10.63, 8.77 0.54, 32 0 M0 32 C-1.14 11.46, 9.08 1.19, 32 0" stroke="#000000" stroke-width="1" fill="none"></path></g><g transform="translate(30 359.2714285714283) rotate(0 170.0625 303.5999999999999)"><text x="0" y="14.720312499999999" font-family="Helvetica, Segoe UI Emoji" font-size="16px" fill="#000000" text-anchor="start" style="white-space: pre;" direction="ltr" dominant-baseline="alphabetic">Entities and API</text><text x="0" y="33.1203125" font-family="Helvetica, Segoe UI Emoji" font-size="16px" fill="#000000" text-anchor="start" style="white-space: pre;" direction="ltr" dominant-baseline="alphabetic"></text><text x="0" y="51.520312499999996" font-family="Helvetica, Segoe UI Emoji" font-size="16px" fill="#000000" text-anchor="start" style="white-space: pre;" direction="ltr" dominant-baseline="alphabetic">User {</text><text x="0" y="69.9203125" font-family="Helvetica, Segoe UI Emoji" font-size="16px" fill="#000000" text-anchor="start" style="white-space: pre;" direction="ltr" dominant-baseline="alphabetic">    userId: Guid;</text><text x="0" y="88.3203125" font-family="Helvetica, Segoe UI Emoji" font-size="16px" fill="#000000" text-anchor="start" style="white-space: pre;" direction="ltr" dominant-baseline="alphabetic">}</text><text x="0" y="106.7203125" font-family="Helvetica, Segoe UI Emoji" font-size="16px" fill="#000000" text-anchor="start" style="white-space: pre;" direction="ltr" dominant-baseline="alphabetic"></text><text x="0" y="125.12031249999998" font-family="Helvetica, Segoe UI Emoji" font-size="16px" fill="#000000" text-anchor="start" style="white-space: pre;" direction="ltr" dominant-baseline="alphabetic">Item {</text><text x="0" y="143.5203125" font-family="Helvetica, Segoe UI Emoji" font-size="16px" fill="#000000" text-anchor="start" style="white-space: pre;" direction="ltr" dominant-baseline="alphabetic">    itemId: Guid;</text><text x="0" y="161.9203125" font-family="Helvetica, Segoe UI Emoji" font-size="16px" fill="#000000" text-anchor="start" style="white-space: pre;" direction="ltr" dominant-baseline="alphabetic">    itemDescription?: string;</text><text x="0" y="180.3203125" font-family="Helvetica, Segoe UI Emoji" font-size="16px" fill="#000000" text-anchor="start" style="white-space: pre;" direction="ltr" dominant-baseline="alphabetic">    itemCategory: Enum.ItemCategory</text><text x="0" y="198.7203125" font-family="Helvetica, Segoe UI Emoji" font-size="16px" fill="#000000" text-anchor="start" style="white-space: pre;" direction="ltr" dominant-baseline="alphabetic">}</text><text x="0" y="217.12031249999998" font-family="Helvetica, Segoe UI Emoji" font-size="16px" fill="#000000" text-anchor="start" style="white-space: pre;" direction="ltr" dominant-baseline="alphabetic"></text><text x="0" y="235.5203125" font-family="Helvetica, Segoe UI Emoji" font-size="16px" fill="#000000" text-anchor="start" style="white-space: pre;" direction="ltr" dominant-baseline="alphabetic">Bid {</text><text x="0" y="253.9203125" font-family="Helvetica, Segoe UI Emoji" font-size="16px" fill="#000000" text-anchor="start" style="white-space: pre;" direction="ltr" dominant-baseline="alphabetic">    bidId: Guid;</text><text x="0" y="272.32031249999994" font-family="Helvetica, Segoe UI Emoji" font-size="16px" fill="#000000" text-anchor="start" style="white-space: pre;" direction="ltr" dominant-baseline="alphabetic">    itemId: Guid;</text><text x="0" y="290.7203125" font-family="Helvetica, Segoe UI Emoji" font-size="16px" fill="#000000" text-anchor="start" style="white-space: pre;" direction="ltr" dominant-baseline="alphabetic">    userIdAndBidPrices: &lt;Guid, decimal&gt;[];</text><text x="0" y="309.12031249999995" font-family="Helvetica, Segoe UI Emoji" font-size="16px" fill="#000000" text-anchor="start" style="white-space: pre;" direction="ltr" dominant-baseline="alphabetic">}</text><text x="0" y="327.52031249999993" font-family="Helvetica, Segoe UI Emoji" font-size="16px" fill="#000000" text-anchor="start" style="white-space: pre;" direction="ltr" dominant-baseline="alphabetic"></text><text x="0" y="345.92031249999997" font-family="Helvetica, Segoe UI Emoji" font-size="16px" fill="#000000" text-anchor="start" style="white-space: pre;" direction="ltr" dominant-baseline="alphabetic"></text><text x="0" y="364.32031249999994" font-family="Helvetica, Segoe UI Emoji" font-size="16px" fill="#000000" text-anchor="start" style="white-space: pre;" direction="ltr" dominant-baseline="alphabetic"></text><text x="0" y="382.7203125" font-family="Helvetica, Segoe UI Emoji" font-size="16px" fill="#000000" text-anchor="start" style="white-space: pre;" direction="ltr" dominant-baseline="alphabetic">API</text><text x="0" y="401.12031249999995" font-family="Helvetica, Segoe UI Emoji" font-size="16px" fill="#000000" text-anchor="start" style="white-space: pre;" direction="ltr" dominant-baseline="alphabetic"></text><text x="0" y="419.52031249999993" font-family="Helvetica, Segoe UI Emoji" font-size="16px" fill="#000000" text-anchor="start" style="white-space: pre;" direction="ltr" dominant-baseline="alphabetic">Orchestrator</text><text x="0" y="437.92031249999997" font-family="Helvetica, Segoe UI Emoji" font-size="16px" fill="#000000" text-anchor="start" style="white-space: pre;" direction="ltr" dominant-baseline="alphabetic"></text><text x="0" y="456.32031249999994" font-family="Helvetica, Segoe UI Emoji" font-size="16px" fill="#000000" text-anchor="start" style="white-space: pre;" direction="ltr" dominant-baseline="alphabetic">// For creating a bid/ auction</text><text x="0" y="474.7203124999999" font-family="Helvetica, Segoe UI Emoji" font-size="16px" fill="#000000" text-anchor="start" style="white-space: pre;" direction="ltr" dominant-baseline="alphabetic"></text><text x="0" y="493.12031249999995" font-family="Helvetica, Segoe UI Emoji" font-size="16px" fill="#000000" text-anchor="start" style="white-space: pre;" direction="ltr" dominant-baseline="alphabetic">AuctionController/POST</text><text x="0" y="511.52031249999993" font-family="Helvetica, Segoe UI Emoji" font-size="16px" fill="#000000" text-anchor="start" style="white-space: pre;" direction="ltr" dominant-baseline="alphabetic">PostItem(userId, itemDescription, itemCategory)</text><text x="0" y="529.9203124999999" font-family="Helvetica, Segoe UI Emoji" font-size="16px" fill="#000000" text-anchor="start" style="white-space: pre;" direction="ltr" dominant-baseline="alphabetic"></text><text x="0" y="548.3203124999999" font-family="Helvetica, Segoe UI Emoji" font-size="16px" fill="#000000" text-anchor="start" style="white-space: pre;" direction="ltr" dominant-baseline="alphabetic"></text><text x="0" y="566.7203125" font-family="Helvetica, Segoe UI Emoji" font-size="16px" fill="#000000" text-anchor="start" style="white-space: pre;" direction="ltr" dominant-baseline="alphabetic">BiddingController/POST</text><text x="0" y="585.1203125" font-family="Helvetica, Segoe UI Emoji" font-size="16px" fill="#000000" text-anchor="start" style="white-space: pre;" direction="ltr" dominant-baseline="alphabetic">// For posting or updating bid</text><text x="0" y="603.5203124999999" font-family="Helvetica, Segoe UI Emoji" font-size="16px" fill="#000000" text-anchor="start" style="white-space: pre;" direction="ltr" dominant-baseline="alphabetic">BidItem(userId, itemId, maxBid)</text></g><g stroke-linecap="round" transform="translate(441 160.57142857142833) rotate(0 59.5 35.5)"><path d="M17.75 0 C45.21 -1.46, 69.77 -0.01, 101.25 0 M17.75 0 C50.61 -0.66, 81.82 -1.63, 101.25 0 M101.25 0 C111.83 1.73, 120.56 6.25, 119 17.75 M101.25 0 C113.91 -0.14, 117.53 3.68, 119 17.75 M119 17.75 C118.65 29.6, 119.64 41.56, 119 53.25 M119 17.75 C119.6 27.45, 120.18 36.1, 119 53.25 M119 53.25 C119.84 64.59, 114.18 69.65, 101.25 71 M119 53.25 C118.37 63.91, 114 71.67, 101.25 71 M101.25 71 C75.59 70.52, 51.33 69.82, 17.75 71 M101.25 71 C84.62 71.19, 67.54 69.73, 17.75 71 M17.75 71 C5.65 72.11, 1.22 66.52, 0 53.25 M17.75 71 C4.2 68.87, 0.02 63.49, 0 53.25 M0 53.25 C1.42 43.58, -1.11 32.74, 0 17.75 M0 53.25 C0.52 45.92, -0.05 37.32, 0 17.75 M0 17.75 C0.65 7.29, 6.54 0.34, 17.75 0 M0 17.75 C-1.78 5.32, 4.99 -1.89, 17.75 0" stroke="#000000" stroke-width="1" fill="none"></path></g><g transform="translate(469.9375 177.67142857142832) rotate(0 30.5625 18.4)"><text x="30.5625" y="14.720312499999999" font-family="Helvetica, Segoe UI Emoji" font-size="16px" fill="#000000" text-anchor="middle" style="white-space: pre;" direction="ltr" dominant-baseline="alphabetic">User for </text><text x="30.5625" y="33.1203125" font-family="Helvetica, Segoe UI Emoji" font-size="16px" fill="#000000" text-anchor="middle" style="white-space: pre;" direction="ltr" dominant-baseline="alphabetic">creating</text></g><g stroke-linecap="round" transform="translate(932 156.57142857142833) rotate(0 67.5 84)"><path d="M32 0 C60.15 -1.57, 87.02 1.49, 103 0 M32 0 C49.97 0.13, 68.34 0.1, 103 0 M103 0 C122.88 -0.39, 135.67 12.41, 135 32 M103 0 C125.42 -1.81, 136.35 12.77, 135 32 M135 32 C136.59 55.7, 134.46 82.26, 135 136 M135 32 C134.7 62.43, 135.21 93.61, 135 136 M135 136 C135.43 157.08, 122.68 167.63, 103 168 M135 136 C133.1 158.33, 126.54 168.18, 103 168 M103 168 C79.38 167.95, 56.37 169.19, 32 168 M103 168 C83.71 168.62, 64.29 169.29, 32 168 M32 168 C10.84 168.87, 0.08 156.13, 0 136 M32 168 C9.21 168.26, -2.11 156.76, 0 136 M0 136 C-1.26 98.69, 2.29 61.48, 0 32 M0 136 C-0.07 106.39, 0.34 77.2, 0 32 M0 32 C-1.88 10.19, 8.97 -1.58, 32 0 M0 32 C0.28 9.13, 9.95 1.58, 32 0" stroke="#000000" stroke-width="1" fill="none"></path></g><g transform="translate(937.4895820617676 185.37142857142834) rotate(0 62.01041793823242 55.199999999999996)"><text x="62.01041793823242" y="14.720312499999999" font-family="Helvetica, Segoe UI Emoji" font-size="16px" fill="#000000" text-anchor="middle" style="white-space: pre;" direction="ltr" dominant-baseline="alphabetic">BidService</text><text x="62.01041793823242" y="33.1203125" font-family="Helvetica, Segoe UI Emoji" font-size="16px" fill="#000000" text-anchor="middle" style="white-space: pre;" direction="ltr" dominant-baseline="alphabetic">- for creating bids</text><text x="62.01041793823242" y="51.520312499999996" font-family="Helvetica, Segoe UI Emoji" font-size="16px" fill="#000000" text-anchor="middle" style="white-space: pre;" direction="ltr" dominant-baseline="alphabetic"></text><text x="62.01041793823242" y="69.9203125" font-family="Helvetica, Segoe UI Emoji" font-size="16px" fill="#000000" text-anchor="middle" style="white-space: pre;" direction="ltr" dominant-baseline="alphabetic">- determining </text><text x="62.01041793823242" y="88.3203125" font-family="Helvetica, Segoe UI Emoji" font-size="16px" fill="#000000" text-anchor="middle" style="white-space: pre;" direction="ltr" dominant-baseline="alphabetic">user with highest </text><text x="62.01041793823242" y="106.7203125" font-family="Helvetica, Segoe UI Emoji" font-size="16px" fill="#000000" text-anchor="middle" style="white-space: pre;" direction="ltr" dominant-baseline="alphabetic">bid</text></g><g stroke-linecap="round"><g transform="translate(564 191.95210286597296) rotate(0 184.22735640785663 15.73355269064012)"><path d="M1.11 -0.23 C62.02 4.84, 304.98 26.02, 366.02 31.48 M0.24 -1.39 C61.45 4.37, 307.12 27.53, 368.22 32.86" stroke="#000000" stroke-width="1" fill="none"></path></g><g transform="translate(564 191.95210286597296) rotate(0 184.22735640785663 15.73355269064012)"><path d="M344.04 39.24 C352.08 35.14, 360.42 35.17, 368.22 32.86 M344.04 39.24 C352.61 36.61, 362.19 34.48, 368.22 32.86" stroke="#000000" stroke-width="1" fill="none"></path></g><g transform="translate(564 191.95210286597296) rotate(0 184.22735640785663 15.73355269064012)"><path d="M345.6 22.21 C353.24 24.1, 361.04 30.09, 368.22 32.86 M345.6 22.21 C353.72 25.75, 362.73 29.78, 368.22 32.86" stroke="#000000" stroke-width="1" fill="none"></path></g></g><mask></mask><g stroke-linecap="round" transform="translate(1250 152.57142857142833) rotate(0 106.5 87.99999999999999)"><path d="M32 0 C73.97 0.23, 116 0.09, 181 0 M32 0 C79.93 -1.05, 127.69 0.07, 181 0 M181 0 C202.71 -1.06, 211.13 10.76, 213 32 M181 0 C200.92 -0.32, 210.9 10.19, 213 32 M213 32 C211.42 58.68, 214.05 88.03, 213 144 M213 32 C212.42 55.97, 213.85 82.38, 213 144 M213 144 C211.17 164.29, 203.71 174.58, 181 176 M213 144 C212.06 166.23, 201.44 174.08, 181 176 M181 176 C141.13 175.87, 103.71 176.81, 32 176 M181 176 C137.22 173.91, 91.25 174.15, 32 176 M32 176 C10.05 175.24, 0.98 164.1, 0 144 M32 176 C10.63 174.61, 1 165.37, 0 144 M0 144 C0.27 100.99, 1.47 58.38, 0 32 M0 144 C-0.2 103.57, -0.17 63.38, 0 32 M0 32 C1.78 12.07, 9.22 -1.31, 32 0 M0 32 C-1.18 12.85, 12.49 0.57, 32 0" stroke="#000000" stroke-width="1" fill="none"></path></g><g transform="translate(1264.8020858764648 222.17142857142832) rotate(0 91.69791412353516 18.4)"><text x="91.69791412353516" y="14.720312499999999" font-family="Helvetica, Segoe UI Emoji" font-size="16px" fill="#000000" text-anchor="middle" style="white-space: pre;" direction="ltr" dominant-baseline="alphabetic">DB for storing User, Item, </text><text x="91.69791412353516" y="33.1203125" font-family="Helvetica, Segoe UI Emoji" font-size="16px" fill="#000000" text-anchor="middle" style="white-space: pre;" direction="ltr" dominant-baseline="alphabetic">Bid</text></g><g stroke-linecap="round"><g transform="translate(1068 234.01891624569987) rotate(0 91.07696264503056 -0.3598362354333844)"><path d="M-0.38 -0.3 C29.51 -0.19, 150 0.61, 180.23 0.82 M1.61 -1.5 C31.82 -1.72, 152.77 -0.92, 182.54 -0.8" stroke="#000000" stroke-width="1" fill="none"></path></g><g transform="translate(1068 234.01891624569987) rotate(0 91.07696264503056 -0.3598362354333844)"><path d="M159 7.63 C167.26 3.28, 178.13 1.39, 182.54 -0.8 M159 7.63 C167.65 5.01, 177.79 2.02, 182.54 -0.8" stroke="#000000" stroke-width="1" fill="none"></path></g><g transform="translate(1068 234.01891624569987) rotate(0 91.07696264503056 -0.3598362354333844)"><path d="M159.09 -9.47 C167.34 -7.45, 178.17 -2.97, 182.54 -0.8 M159.09 -9.47 C167.72 -5.37, 177.82 -1.65, 182.54 -0.8" stroke="#000000" stroke-width="1" fill="none"></path></g></g><mask></mask><g stroke-linecap="round" transform="translate(439 291.5714285714283) rotate(0 58 33)"><path d="M16.5 0 C46.71 -1.6, 74.07 2.3, 99.5 0 M16.5 0 C39.27 0.22, 59.16 -0.06, 99.5 0 M99.5 0 C109.58 1.25, 116.01 5.02, 116 16.5 M99.5 0 C112.32 1.53, 113.87 4.69, 116 16.5 M116 16.5 C115.74 28.32, 115.06 41.26, 116 49.5 M116 16.5 C115.25 28.41, 116.46 37.86, 116 49.5 M116 49.5 C117.21 61.91, 108.68 64.35, 99.5 66 M116 49.5 C115.89 61.01, 108.69 64.65, 99.5 66 M99.5 66 C65.97 65.68, 34.16 64.43, 16.5 66 M99.5 66 C76.04 65.78, 52.31 65.95, 16.5 66 M16.5 66 C5.69 67.28, -0.54 58.62, 0 49.5 M16.5 66 C3.59 64.93, -0.69 59.24, 0 49.5 M0 49.5 C1.83 37.68, -0.28 28.6, 0 16.5 M0 49.5 C-0.58 42.75, -0.51 33.84, 0 16.5 M0 16.5 C-0.93 7.23, 6.48 0.31, 16.5 0 M0 16.5 C1.95 5.12, 4.6 -0.73, 16.5 0" stroke="#000000" stroke-width="1" fill="none"></path></g><g transform="translate(466.4375 306.17142857142835) rotate(0 30.5625 18.400000000000006)"><text x="30.5625" y="14.720312499999999" font-family="Helvetica, Segoe UI Emoji" font-size="16px" fill="#000000" text-anchor="middle" style="white-space: pre;" direction="ltr" dominant-baseline="alphabetic">User for </text><text x="30.5625" y="33.1203125" font-family="Helvetica, Segoe UI Emoji" font-size="16px" fill="#000000" text-anchor="middle" style="white-space: pre;" direction="ltr" dominant-baseline="alphabetic">bidding</text></g><g stroke-linecap="round"><g transform="translate(556.0000000000001 318.0394504731897) rotate(0 188.29349210760546 -25.865325846183666)"><path d="M0.83 0.43 C63.22 -7.82, 311.85 -41.86, 374.39 -50.16 M-0.2 -0.39 C62.59 -8.96, 314.11 -43.69, 376.78 -52.16" stroke="#000000" stroke-width="1" fill="none"></path></g><g transform="translate(556.0000000000001 318.0394504731897) rotate(0 188.29349210760546 -25.865325846183666)"><path d="M354.67 -40.5 C362.16 -45.2, 368.56 -45.96, 376.78 -52.16 M354.67 -40.5 C363.15 -44.4, 370.8 -49.97, 376.78 -52.16" stroke="#000000" stroke-width="1" fill="none"></path></g><g transform="translate(556.0000000000001 318.0394504731897) rotate(0 188.29349210760546 -25.865325846183666)"><path d="M352.35 -57.45 C360.44 -57.02, 367.55 -52.64, 376.78 -52.16 M352.35 -57.45 C361.71 -54.83, 370.24 -53.87, 376.78 -52.16" stroke="#000000" stroke-width="1" fill="none"></path></g></g><mask></mask><g stroke-linecap="round"><g transform="translate(1068 276.69571128543987) rotate(0 89.73530544266123 -0.428331535260547)"><path d="M-0.67 0.98 C29.51 0.54, 150.07 -1.4, 180.14 -1.84 M1.18 0.46 C31.38 0.14, 150.09 -0.25, 179.79 -0.37" stroke="#000000" stroke-width="1" fill="none"></path></g><g transform="translate(1068 276.69571128543987) rotate(0 89.73530544266123 -0.428331535260547)"><path d="M156.33 8.27 C163.15 8.37, 166.54 5.82, 179.79 -0.37 M156.33 8.27 C162.65 5.58, 171.27 3.33, 179.79 -0.37" stroke="#000000" stroke-width="1" fill="none"></path></g><g transform="translate(1068 276.69571128543987) rotate(0 89.73530544266123 -0.428331535260547)"><path d="M156.27 -8.83 C163.22 -4.91, 166.62 -3.64, 179.79 -0.37 M156.27 -8.83 C162.61 -6.28, 171.25 -3.28, 179.79 -0.37" stroke="#000000" stroke-width="1" fill="none"></path></g></g><mask></mask><g stroke-linecap="round" transform="translate(460.73086921940103 671.0714285714283) rotate(0 66.5 34.5)"><path d="M17.25 0 C39.32 0.36, 59.38 1.76, 115.75 0 M17.25 0 C40.34 -0.17, 61.2 -0.17, 115.75 0 M115.75 0 C126.36 1.74, 132.91 7.1, 133 17.25 M115.75 0 C125.96 0.11, 131.86 4.15, 133 17.25 M133 17.25 C134.23 23.57, 131.37 29.46, 133 51.75 M133 17.25 C134.15 29.41, 134.1 40.87, 133 51.75 M133 51.75 C131.29 62.7, 127.72 67.92, 115.75 69 M133 51.75 C131.74 64.69, 127.64 66.8, 115.75 69 M115.75 69 C76.7 69.08, 38.8 69.79, 17.25 69 M115.75 69 C75.54 68.82, 37.89 68.01, 17.25 69 M17.25 69 C4.44 69.07, 1.32 63.95, 0 51.75 M17.25 69 C7.3 71, -1.77 61.84, 0 51.75 M0 51.75 C1.67 39.16, 0.28 22.67, 0 17.25 M0 51.75 C0.36 40.63, -0.73 29.12, 0 17.25 M0 17.25 C1.47 5.56, 5.2 -0.66, 17.25 0 M0 17.25 C-0.61 6.12, 4.84 -1.03, 17.25 0" stroke="#000000" stroke-width="1" fill="none"></path></g><g transform="translate(466.10586921940103 696.3714285714283) rotate(0 61.125 9.199999999999989)"><text x="61.125" y="14.720312499999999" font-family="Helvetica, Segoe UI Emoji" font-size="16px" fill="#000000" text-anchor="middle" style="white-space: pre;" direction="ltr" dominant-baseline="alphabetic">User for creating </text></g><g stroke-linecap="round" transform="translate(973.730869219401 705.0714285714283) rotate(0 67.5 89)"><path d="M32 0 C50.12 0.91, 69.87 0.99, 103 0 M32 0 C47.25 1.43, 63.35 1.23, 103 0 M103 0 C123.21 0.1, 134.01 9.27, 135 32 M103 0 C122.15 -1.01, 133.75 12.26, 135 32 M135 32 C135.07 63.47, 134.22 93.41, 135 146 M135 32 C135.08 68.66, 136.17 105.34, 135 146 M135 146 C133.9 168.58, 124.67 176.09, 103 178 M135 146 C137 168.89, 124.75 176.94, 103 178 M103 178 C84.01 179.63, 59.82 176.29, 32 178 M103 178 C77.87 177.78, 54.7 178.09, 32 178 M32 178 C12.02 179.74, -1.54 166.11, 0 146 M32 178 C12.8 175.99, 0.52 168.91, 0 146 M0 146 C0.42 106.67, -0.6 67.46, 0 32 M0 146 C1.5 112.42, 0.49 78.71, 0 32 M0 32 C-0.53 10.99, 9.88 -0.89, 32 0 M0 32 C1.49 12.48, 9.96 -1.17, 32 0" stroke="#000000" stroke-width="1" fill="none"></path></g><g transform="translate(996.9392012811686 775.6714285714284) rotate(0 44.29166793823242 18.399999999999977)"><text x="44.29166793823242" y="14.720312499999999" font-family="Helvetica, Segoe UI Emoji" font-size="16px" fill="#000000" text-anchor="middle" style="white-space: pre;" direction="ltr" dominant-baseline="alphabetic">Orchestrator</text><text x="44.29166793823242" y="33.1203125" font-family="Helvetica, Segoe UI Emoji" font-size="16px" fill="#000000" text-anchor="middle" style="white-space: pre;" direction="ltr" dominant-baseline="alphabetic">Service</text></g><g stroke-linecap="round"><g transform="translate(596.730869219401 716.2312935994131) rotate(0 92.88598464216108 25.342696990820855)"><path d="M0.79 -0.95 C31.31 7.61, 153.28 41.67, 183.9 50.59 M-0.26 1.17 C30.56 9.91, 155.42 43.36, 186.03 51.63" stroke="#000000" stroke-width="1" fill="none"></path></g><g transform="translate(596.730869219401 716.2312935994131) rotate(0 92.88598464216108 25.342696990820855)"><path d="M161.13 53.78 C168.56 51.01, 177.57 51.18, 186.03 51.63 M161.13 53.78 C170.21 52.83, 179.91 51.25, 186.03 51.63" stroke="#000000" stroke-width="1" fill="none"></path></g><g transform="translate(596.730869219401 716.2312935994131) rotate(0 92.88598464216108 25.342696990820855)"><path d="M165.57 37.27 C171.3 40.49, 178.7 46.63, 186.03 51.63 M165.57 37.27 C172.92 42.74, 180.91 47.56, 186.03 51.63" stroke="#000000" stroke-width="1" fill="none"></path></g></g><mask></mask><g stroke-linecap="round"><g transform="translate(1109.730869219401 771.9944311996308) rotate(0 118.89757280807407 -24.795973998282022)"><path d="M-1.1 -0.94 C38.58 -8.98, 198.82 -41.11, 238.9 -49.19 M0.52 1.18 C39.93 -7.1, 197.99 -42.01, 237.67 -50.77" stroke="#000000" stroke-width="1" fill="none"></path></g><g transform="translate(1109.730869219401 771.9944311996308) rotate(0 118.89757280807407 -24.795973998282022)"><path d="M20.24 -13.96 C10.77 -10.28, 6.28 -4.73, -1.1 -0.94 M20.24 -13.96 C11.83 -9.86, 3.54 -4.83, -1.1 -0.94" stroke="#000000" stroke-width="1" fill="none"></path></g><g transform="translate(1109.730869219401 771.9944311996308) rotate(0 118.89757280807407 -24.795973998282022)"><path d="M23.62 2.81 C13.04 0.32, 7.32 -0.25, -1.1 -0.94 M23.62 2.81 C14.06 0.75, 4.53 -0.37, -1.1 -0.94" stroke="#000000" stroke-width="1" fill="none"></path></g><g transform="translate(1109.730869219401 771.9944311996308) rotate(0 118.89757280807407 -24.795973998282022)"><path d="M216.57 -37.36 C222.82 -42.95, 233.84 -47.05, 237.67 -50.77 M216.57 -37.36 C223.9 -42.99, 231.2 -47.66, 237.67 -50.77" stroke="#000000" stroke-width="1" fill="none"></path></g><g transform="translate(1109.730869219401 771.9944311996308) rotate(0 118.89757280807407 -24.795973998282022)"><path d="M212.89 -54.06 C220.35 -53.51, 232.72 -51.51, 237.67 -50.77 M212.89 -54.06 C221.47 -53.56, 230.13 -52.09, 237.67 -50.77" stroke="#000000" stroke-width="1" fill="none"></path></g></g><mask></mask><g stroke-linecap="round" transform="translate(462.73086921940103 818.0714285714283) rotate(0 58 33)"><path d="M16.5 0 C35.52 0.28, 52.41 -0.75, 99.5 0 M16.5 0 C40.85 0.14, 66.56 1.27, 99.5 0 M99.5 0 C109.73 -1.48, 114.05 6.41, 116 16.5 M99.5 0 C112.39 0.07, 118 6.05, 116 16.5 M116 16.5 C115.38 29.57, 114.85 40.6, 116 49.5 M116 16.5 C116.93 29.14, 116.24 39.96, 116 49.5 M116 49.5 C115.9 59.81, 111.11 67.97, 99.5 66 M116 49.5 C117.63 59.04, 108.28 67.03, 99.5 66 M99.5 66 C69.47 66.78, 40 66.81, 16.5 66 M99.5 66 C68.31 64.61, 35.48 66.18, 16.5 66 M16.5 66 C6.46 65.98, -1.97 60.91, 0 49.5 M16.5 66 C5.91 65.29, 0.96 60.35, 0 49.5 M0 49.5 C-0.02 41.25, -0.49 33.58, 0 16.5 M0 49.5 C0.78 39.86, -0.18 28.14, 0 16.5 M0 16.5 C0.36 5.33, 3.86 1.73, 16.5 0 M0 16.5 C1.15 4.75, 4.85 0.21, 16.5 0" stroke="#000000" stroke-width="1" fill="none"></path></g><g transform="translate(490.16836921940103 832.6714285714284) rotate(0 30.5625 18.399999999999977)"><text x="30.5625" y="14.720312499999999" font-family="Helvetica, Segoe UI Emoji" font-size="16px" fill="#000000" text-anchor="middle" style="white-space: pre;" direction="ltr" dominant-baseline="alphabetic">User for </text><text x="30.5625" y="33.1203125" font-family="Helvetica, Segoe UI Emoji" font-size="16px" fill="#000000" text-anchor="middle" style="white-space: pre;" direction="ltr" dominant-baseline="alphabetic">bidding</text></g><g stroke-linecap="round"><g transform="translate(579.730869219401 854.5705512359169) rotate(0 102.06495122579383 -16.43832492884411)"><path d="M-0.67 0.06 C33.07 -5.57, 168.65 -27.49, 202.4 -32.93 M1.17 -0.96 C35.32 -6.52, 170.97 -26.73, 204.8 -31.84" stroke="#000000" stroke-width="1" fill="none"></path></g><g transform="translate(579.730869219401 854.5705512359169) rotate(0 102.06495122579383 -16.43832492884411)"><path d="M21.14 -12.16 C14.87 -9.66, 6.93 -6.95, -0.67 0.06 M21.14 -12.16 C15.11 -9.62, 8.92 -5.29, -0.67 0.06" stroke="#000000" stroke-width="1" fill="none"></path></g><g transform="translate(579.730869219401 854.5705512359169) rotate(0 102.06495122579383 -16.43832492884411)"><path d="M23.89 4.72 C16.69 2.21, 7.94 -0.07, -0.67 0.06 M23.89 4.72 C17.24 2.96, 10.36 2.96, -0.67 0.06" stroke="#000000" stroke-width="1" fill="none"></path></g><g transform="translate(579.730869219401 854.5705512359169) rotate(0 102.06495122579383 -16.43832492884411)"><path d="M182.84 -19.89 C189.35 -24.29, 194.35 -28.73, 204.8 -31.84 M182.84 -19.89 C188.15 -23.84, 193.18 -25.71, 204.8 -31.84" stroke="#000000" stroke-width="1" fill="none"></path></g><g transform="translate(579.730869219401 854.5705512359169) rotate(0 102.06495122579383 -16.43832492884411)"><path d="M180.3 -36.81 C187.68 -36.19, 193.43 -35.62, 204.8 -31.84 M180.3 -36.81 C186.17 -36.44, 191.85 -33.97, 204.8 -31.84" stroke="#000000" stroke-width="1" fill="none"></path></g></g><mask></mask><g stroke-linecap="round"><g transform="translate(1109.730869219401 824.7008617214595) rotate(0 121.76267588800431 -18.800788851326217)"><path d="M-0.6 -0.84 C39.85 -7.34, 201.49 -32.82, 242.01 -38.94 M1.29 1.34 C42.15 -5.01, 204.11 -30.88, 244.12 -37.68" stroke="#000000" stroke-width="1" fill="none"></path></g><g transform="translate(1109.730869219401 824.7008617214595) rotate(0 121.76267588800431 -18.800788851326217)"><path d="M222.32 -25.44 C226.24 -30.21, 232.07 -32.39, 244.12 -37.68 M222.32 -25.44 C229.44 -29.34, 239.29 -34.29, 244.12 -37.68" stroke="#000000" stroke-width="1" fill="none"></path></g><g transform="translate(1109.730869219401 824.7008617214595) rotate(0 121.76267588800431 -18.800788851326217)"><path d="M219.55 -42.32 C224.16 -42.96, 230.66 -41.02, 244.12 -37.68 M219.55 -42.32 C227.63 -39.97, 238.5 -38.68, 244.12 -37.68" stroke="#000000" stroke-width="1" fill="none"></path></g></g><mask></mask><g transform="translate(461 605.5714285714283) rotate(0 87.28125 9.199999999999989)"><text x="0" y="14.720312499999999" font-family="Helvetica, Segoe UI Emoji" font-size="16px" fill="#000000" text-anchor="start" style="white-space: pre;" direction="ltr" dominant-baseline="alphabetic">Taking it to the next level</text></g><g transform="translate(26 121.57142857142833) rotate(0 206.8229217529297 82.8)"><text x="0" y="14.720312499999999" font-family="Helvetica, Segoe UI Emoji" font-size="16px" fill="#000000" text-anchor="start" style="white-space: pre;" direction="ltr" dominant-baseline="alphabetic">We use Relationship DB because </text><text x="0" y="33.1203125" font-family="Helvetica, Segoe UI Emoji" font-size="16px" fill="#000000" text-anchor="start" style="white-space: pre;" direction="ltr" dominant-baseline="alphabetic">we consistency,  in this case it's more important </text><text x="0" y="51.520312499999996" font-family="Helvetica, Segoe UI Emoji" font-size="16px" fill="#000000" text-anchor="start" style="white-space: pre;" direction="ltr" dominant-baseline="alphabetic">than availability</text><text x="0" y="69.9203125" font-family="Helvetica, Segoe UI Emoji" font-size="16px" fill="#000000" text-anchor="start" style="white-space: pre;" direction="ltr" dominant-baseline="alphabetic"></text><text x="0" y="88.3203125" font-family="Helvetica, Segoe UI Emoji" font-size="16px" fill="#000000" text-anchor="start" style="white-space: pre;" direction="ltr" dominant-baseline="alphabetic">Also RDBMS allows you to query auctions in a related way</text><text x="0" y="106.7203125" font-family="Helvetica, Segoe UI Emoji" font-size="16px" fill="#000000" text-anchor="start" style="white-space: pre;" direction="ltr" dominant-baseline="alphabetic">Harder to do in NoSql. </text><text x="0" y="125.12031249999998" font-family="Helvetica, Segoe UI Emoji" font-size="16px" fill="#000000" text-anchor="start" style="white-space: pre;" direction="ltr" dominant-baseline="alphabetic">Tagging is easily done with RDBMS</text><text x="0" y="143.5203125" font-family="Helvetica, Segoe UI Emoji" font-size="16px" fill="#000000" text-anchor="start" style="white-space: pre;" direction="ltr" dominant-baseline="alphabetic"></text><text x="0" y="161.9203125" font-family="Helvetica, Segoe UI Emoji" font-size="16px" fill="#000000" text-anchor="start" style="white-space: pre;" direction="ltr" dominant-baseline="alphabetic">Can use Datadog for logging/tracing/analytics</text></g><g stroke-linecap="round" transform="translate(791 685.5714285714283) rotate(0 38 113.5)"><path d="M19 0 C32.24 -0.73, 43.59 -1.25, 57 0 M19 0 C30.48 -0.69, 42.4 -0.38, 57 0 M57 0 C68.8 -0.33, 76.6 7.06, 76 19 M57 0 C71.58 -0.64, 77.84 4.42, 76 19 M76 19 C76.38 88.24, 76.23 152.56, 76 208 M76 19 C74.18 57.94, 74.38 99.14, 76 208 M76 208 C74.42 222.54, 67.81 226.5, 57 227 M76 208 C75 221.77, 71.17 228.07, 57 227 M57 227 C43.99 226.11, 29.08 228.48, 19 227 M57 227 C46.79 227.19, 36.03 225.95, 19 227 M19 227 C5.03 226.84, -0.58 220.98, 0 208 M19 227 C6.1 228.16, 1.76 222.58, 0 208 M0 208 C0.61 164.84, 1.33 122.01, 0 19 M0 208 C1.22 167.1, 2.29 124.71, 0 19 M0 19 C-0.84 7.62, 7.71 -0.54, 19 0 M0 19 C-1.47 4.15, 6.1 -1.31, 19 0" stroke="#000000" stroke-width="1" fill="none"></path></g><g transform="translate(809 737.5714285714283) rotate(0 9.739583015441895 9.199999999999989)"><text x="0" y="14.720312499999999" font-family="Helvetica, Segoe UI Emoji" font-size="16px" fill="#000000" text-anchor="start" style="white-space: pre;" direction="ltr" dominant-baseline="alphabetic">LB</text></g><g stroke-linecap="round"><g transform="translate(870 787.8873302056078) rotate(0 51.0799894895149 -2.9114067934289665)"><path d="M-0.62 -0.12 C16.66 -0.89, 85.74 -4.73, 102.78 -5.7 M1.26 -1.23 C18.46 -1.74, 84.74 -3.8, 101.85 -4.44" stroke="#000000" stroke-width="1" fill="none"></path></g><g transform="translate(870 787.8873302056078) rotate(0 51.0799894895149 -2.9114067934289665)"><path d="M22.39 -9.91 C16.89 -7.74, 11.02 -7.44, -0.62 -0.12 M22.39 -9.91 C16.21 -6.93, 11.16 -4.6, -0.62 -0.12" stroke="#000000" stroke-width="1" fill="none"></path></g><g transform="translate(870 787.8873302056078) rotate(0 51.0799894895149 -2.9114067934289665)"><path d="M23.3 7.17 C17.75 5.47, 11.68 1.9, -0.62 -0.12 M23.3 7.17 C16.75 6.15, 11.49 4.48, -0.62 -0.12" stroke="#000000" stroke-width="1" fill="none"></path></g><g transform="translate(870 787.8873302056078) rotate(0 51.0799894895149 -2.9114067934289665)"><path d="M78.66 4.9 C83.79 2.98, 88.38 -1.04, 101.85 -4.44 M78.66 4.9 C83.13 3.14, 88.92 0.99, 101.85 -4.44" stroke="#000000" stroke-width="1" fill="none"></path></g><g transform="translate(870 787.8873302056078) rotate(0 51.0799894895149 -2.9114067934289665)"><path d="M78.08 -12.19 C83.19 -10.24, 87.9 -10.4, 101.85 -4.44 M78.08 -12.19 C82.85 -9.95, 88.77 -8.09, 101.85 -4.44" stroke="#000000" stroke-width="1" fill="none"></path></g></g><mask></mask><g stroke-linecap="round" transform="translate(1498.3571428571431 935.9999999999997) rotate(0 106.5 88)"><path d="M32 0 C63.41 -0.17, 97.08 -0.82, 181 0 M32 0 C67.17 -1.52, 103.97 -0.07, 181 0 M181 0 C203.66 0.56, 212.72 9.04, 213 32 M181 0 C202.1 1.84, 213.58 11.14, 213 32 M213 32 C210.14 65.63, 212.42 99.23, 213 144 M213 32 C213.96 71.96, 214.43 113.78, 213 144 M213 144 C214.36 167.07, 201.9 175.58, 181 176 M213 144 C210.82 166.83, 203.31 176.4, 181 176 M181 176 C126.63 175.97, 67.67 173.76, 32 176 M181 176 C142.67 176.8, 106.24 175.68, 32 176 M32 176 C9.53 176.21, 1.65 167.27, 0 144 M32 176 C12.86 175.53, 1.47 164.21, 0 144 M0 144 C2.01 101.03, 0.96 57.2, 0 32 M0 144 C0.14 99.57, 1.1 55.75, 0 32 M0 32 C-1.27 10.05, 8.87 0.2, 32 0 M0 32 C0.42 9.49, 12.43 -1.08, 32 0" stroke="#000000" stroke-width="1" fill="none"></path></g><g transform="translate(1513.159228733608 1005.5999999999997) rotate(0 91.69791412353516 18.399999999999977)"><text x="91.69791412353516" y="14.720312499999999" font-family="Helvetica, Segoe UI Emoji" font-size="16px" fill="#000000" text-anchor="middle" style="white-space: pre;" direction="ltr" dominant-baseline="alphabetic">DB for storing User, Item, </text><text x="91.69791412353516" y="33.1203125" font-family="Helvetica, Segoe UI Emoji" font-size="16px" fill="#000000" text-anchor="middle" style="white-space: pre;" direction="ltr" dominant-baseline="alphabetic">Bid</text></g><g transform="translate(650 698.3761343440596) rotate(0 27 7.9775778288544075)"><text x="0" y="12.764395503674846" font-family="Helvetica, Segoe UI Emoji" font-size="13.87404839800769px" fill="#000000" text-anchor="start" style="white-space: pre;" direction="ltr" dominant-baseline="alphabetic">Creating</text></g><g transform="translate(494.57142857142867 783.285714285714) rotate(0 142.4583282470703 9.199999999999989)"><text x="0" y="14.720312499999999" font-family="Helvetica, Segoe UI Emoji" font-size="16px" fill="#000000" text-anchor="start" style="white-space: pre;" direction="ltr" dominant-baseline="alphabetic">Creating/updating a bid, use WebSocket</text></g><g stroke-linecap="round"><g transform="translate(579.7308692194011 883.4082899233622) rotate(0 105.7861697437404 -7.0694534450803985)"><path d="M0.99 0.65 C36.01 -1.56, 174.54 -10.67, 209.31 -13.11 M0.05 -0.06 C35.51 -2.61, 176.77 -12.69, 211.52 -14.79" stroke="#000000" stroke-width="1" fill="none"></path></g><g transform="translate(579.7308692194011 883.4082899233622) rotate(0 105.7861697437404 -7.0694534450803985)"><path d="M188.65 -4.69 C195.06 -8.84, 200.75 -10.67, 211.52 -14.79 M188.65 -4.69 C194.63 -7.86, 201.52 -10.97, 211.52 -14.79" stroke="#000000" stroke-width="1" fill="none"></path></g><g transform="translate(579.7308692194011 883.4082899233622) rotate(0 105.7861697437404 -7.0694534450803985)"><path d="M187.51 -21.75 C194.21 -21.92, 200.16 -19.76, 211.52 -14.79 M187.51 -21.75 C193.81 -19.84, 201.04 -17.85, 211.52 -14.79" stroke="#000000" stroke-width="1" fill="none"></path></g></g><mask></mask><g transform="translate(646 884.5714285714283) rotate(0 45.16666793823242 9.199999999999989)"><text x="0" y="14.720312499999999" font-family="Helvetica, Segoe UI Emoji" font-size="16px" fill="#000000" text-anchor="start" style="white-space: pre;" direction="ltr" dominant-baseline="alphabetic">Querying bid</text></g><g stroke-linecap="round"><g transform="translate(869 872.1947282689396) rotate(0 51.780314142412976 -8.667512634546881)"><path d="M0.96 -0.22 C18.24 -2.68, 86.27 -12.81, 103.56 -15.38 M0.01 -1.38 C17.12 -4.13, 85.12 -14.39, 102.52 -17.12" stroke="#000000" stroke-width="1" fill="none"></path></g><g transform="translate(869 872.1947282689396) rotate(0 51.780314142412976 -8.667512634546881)"><path d="M80.59 -5.1 C86.62 -9.04, 94.55 -10.66, 102.52 -17.12 M80.59 -5.1 C87.36 -10.14, 95.96 -12.8, 102.52 -17.12" stroke="#000000" stroke-width="1" fill="none"></path></g><g transform="translate(869 872.1947282689396) rotate(0 51.780314142412976 -8.667512634546881)"><path d="M78 -22 C84.69 -21.08, 93.37 -17.81, 102.52 -17.12 M78 -22 C85.75 -21.31, 95.23 -18.21, 102.52 -17.12" stroke="#000000" stroke-width="1" fill="none"></path></g></g><mask></mask><g mask="url(#mask-nFLdruVi_eBI34RV5KBpc)" stroke-linecap="round"><g transform="translate(1570.128832236515 592.9999999999998) rotate(0 26.40006623555405 -51.28227969801861)"><path d="M-0.14 0.25 C8.97 -16.99, 45.39 -85.61, 54.48 -102.81 M-1.68 -0.67 C7.38 -17.84, 44.74 -84.85, 54.04 -101.78" stroke="#000000" stroke-width="1" fill="none"></path></g><g transform="translate(1570.128832236515 592.9999999999998) rotate(0 26.40006623555405 -51.28227969801861)"><path d="M50.15 -77.08 C51.55 -82.48, 50.65 -89.62, 54.04 -101.78 M50.15 -77.08 C52.05 -82.88, 51.89 -87.68, 54.04 -101.78" stroke="#000000" stroke-width="1" fill="none"></path></g><g transform="translate(1570.128832236515 592.9999999999998) rotate(0 26.40006623555405 -51.28227969801861)"><path d="M35.19 -85.37 C40.89 -88.38, 44.25 -93.17, 54.04 -101.78 M35.19 -85.37 C40.13 -89.49, 43.07 -92.57, 54.04 -101.78" stroke="#000000" stroke-width="1" fill="none"></path></g></g><mask id="mask-nFLdruVi_eBI34RV5KBpc"><rect x="0" y="0" fill="#fff" width="1723.6236452071414" height="794.8571428571429"></rect><rect x="1494.0116528453634" y="450.0714285714282" fill="#000" width="205.7291717529297" height="184" opacity="1"></rect></mask><g transform="translate(1494.0116528453634 450.0714285714282) rotate(0 102.51724562670574 91.64629173055295)"><text x="102.86458587646484" y="18.400390625" font-family="Helvetica, Segoe UI Emoji" font-size="20px" fill="#000000" text-anchor="middle" style="white-space: pre;" direction="ltr" dominant-baseline="alphabetic">Better to have the  </text><text x="102.86458587646484" y="41.400390625" font-family="Helvetica, Segoe UI Emoji" font-size="20px" fill="#000000" text-anchor="middle" style="white-space: pre;" direction="ltr" dominant-baseline="alphabetic">backend service for </text><text x="102.86458587646484" y="64.400390625" font-family="Helvetica, Segoe UI Emoji" font-size="20px" fill="#000000" text-anchor="middle" style="white-space: pre;" direction="ltr" dominant-baseline="alphabetic">persisting to DB, and </text><text x="102.86458587646484" y="87.400390625" font-family="Helvetica, Segoe UI Emoji" font-size="20px" fill="#000000" text-anchor="middle" style="white-space: pre;" direction="ltr" dominant-baseline="alphabetic">then also publish to </text><text x="102.86458587646484" y="110.400390625" font-family="Helvetica, Segoe UI Emoji" font-size="20px" fill="#000000" text-anchor="middle" style="white-space: pre;" direction="ltr" dominant-baseline="alphabetic">redis, rather than redis </text><text x="102.86458587646484" y="133.400390625" font-family="Helvetica, Segoe UI Emoji" font-size="20px" fill="#000000" text-anchor="middle" style="white-space: pre;" direction="ltr" dominant-baseline="alphabetic">to some task runner </text><text x="102.86458587646484" y="156.400390625" font-family="Helvetica, Segoe UI Emoji" font-size="20px" fill="#000000" text-anchor="middle" style="white-space: pre;" direction="ltr" dominant-baseline="alphabetic">then to DB, for </text><text x="102.86458587646484" y="179.400390625" font-family="Helvetica, Segoe UI Emoji" font-size="20px" fill="#000000" text-anchor="middle" style="white-space: pre;" direction="ltr" dominant-baseline="alphabetic">consistency </text></g><g stroke-linecap="round" transform="translate(1734.7857142857142 358.4285714285711) rotate(0 106.5 88)"><path d="M32 0 C77.14 -0.89, 123.92 -2.13, 181 0 M32 0 C74.68 -0.05, 117.96 1.24, 181 0 M181 0 C200.86 0, 213.89 11.53, 213 32 M181 0 C200.66 0.48, 213.25 11.13, 213 32 M213 32 C212.43 74.62, 213.37 120.04, 213 144 M213 32 C213.65 73.47, 213.27 114.31, 213 144 M213 144 C211.38 164.18, 201.83 175.61, 181 176 M213 144 C211.72 167.03, 202.12 174.26, 181 176 M181 176 C134.59 178.83, 92.28 179.04, 32 176 M181 176 C132.98 176.43, 87.26 174.79, 32 176 M32 176 C9.14 176.23, -1.31 166.07, 0 144 M32 176 C12.41 176.44, 2.13 163.45, 0 144 M0 144 C-1.12 108.92, 0.77 72.46, 0 32 M0 144 C0.12 114.34, 0.08 86.1, 0 32 M0 32 C-1.96 11.55, 9 0.71, 32 0 M0 32 C-0.83 9.42, 11.31 0.85, 32 0" stroke="#000000" stroke-width="1" fill="none"></path></g><g transform="translate(1791.7023822239466 437.22857142857106) rotate(0 49.58333206176758 9.199999999999989)"><text x="49.58333206176758" y="14.720312499999999" font-family="Helvetica, Segoe UI Emoji" font-size="16px" fill="#000000" text-anchor="middle" style="white-space: pre;" direction="ltr" dominant-baseline="alphabetic">Read-only DB</text></g><g transform="translate(476 931.5714285714283) rotate(0 148.3645782470703 9.199999999999989)"><text x="0" y="14.720312499999999" font-family="Helvetica, Segoe UI Emoji" font-size="16px" fill="#000000" text-anchor="start" style="white-space: pre;" direction="ltr" dominant-baseline="alphabetic">Assuming reading is a lot more than write </text></g><g transform="translate(1178 662.5714285714283) rotate(0 23.01041603088379 9.199999999999989)"><text x="0" y="14.720312499999999" font-family="Helvetica, Segoe UI Emoji" font-size="16px" fill="#000000" text-anchor="start" style="white-space: pre;" direction="ltr" dominant-baseline="alphabetic">CQRS</text></g><g transform="translate(1134 732.5714285714283) rotate(0 25.66666603088379 9.199999999999989)"><text x="0" y="14.720312499999999" font-family="Helvetica, Segoe UI Emoji" font-size="16px" fill="#000000" text-anchor="start" style="white-space: pre;" direction="ltr" dominant-baseline="alphabetic">WRITE</text></g><g transform="translate(1157.2857142857142 847.5714285714283) rotate(0 28.1875 9.199999999999989)"><text x="0" y="14.720312499999999" font-family="Helvetica, Segoe UI Emoji" font-size="16px" fill="#000000" text-anchor="start" style="white-space: pre;" direction="ltr" dominant-baseline="alphabetic">QUERY</text></g><g stroke-linecap="round" transform="translate(1647.9285714285702 638.285714285714) rotate(0 67.5 89.00000000000006)"><path d="M32 0 C60.34 0.69, 89.11 -0.16, 103 0 M32 0 C58.6 0.55, 85.57 1.42, 103 0 M103 0 C122.48 0.32, 133.93 10.18, 135 32 M103 0 C123.64 -0.28, 132.95 11.77, 135 32 M135 32 C134.27 60.5, 133.61 87.58, 135 146 M135 32 C136.15 58.04, 135.26 82.61, 135 146 M135 146 C135.66 167.75, 124.59 178.53, 103 178 M135 146 C135.19 167.14, 125.3 177.19, 103 178 M103 178 C87.22 178.05, 69.38 177.9, 32 178 M103 178 C88.18 178.84, 71.63 177.48, 32 178 M32 178 C9.63 177.03, -1.39 165.49, 0 146 M32 178 C11 176.25, -0.73 166.03, 0 146 M0 146 C0.2 119.53, 2.29 93.66, 0 32 M0 146 C-1.16 117.01, -0.51 88.24, 0 32 M0 32 C0.26 9.96, 9.71 -1.99, 32 0 M0 32 C-1.07 12.24, 10.33 -1.07, 32 0" stroke="#000000" stroke-width="1" fill="none"></path></g><g transform="translate(1653.8556534903378 690.485714285714) rotate(0 61.57291793823242 36.80000000000001)"><text x="61.57291793823242" y="14.720312499999999" font-family="Helvetica, Segoe UI Emoji" font-size="16px" fill="#000000" text-anchor="middle" style="white-space: pre;" direction="ltr" dominant-baseline="alphabetic">BidService</text><text x="61.57291793823242" y="33.1203125" font-family="Helvetica, Segoe UI Emoji" font-size="16px" fill="#000000" text-anchor="middle" style="white-space: pre;" direction="ltr" dominant-baseline="alphabetic">- for creating bids</text><text x="61.57291793823242" y="51.520312499999996" font-family="Helvetica, Segoe UI Emoji" font-size="16px" fill="#000000" text-anchor="middle" style="white-space: pre;" direction="ltr" dominant-baseline="alphabetic"></text><text x="61.57291793823242" y="69.9203125" font-family="Helvetica, Segoe UI Emoji" font-size="16px" fill="#000000" text-anchor="middle" style="white-space: pre;" direction="ltr" dominant-baseline="alphabetic"></text></g><g stroke-linecap="round"><g transform="translate(1666.186416195109 820.2857142857141) rotate(0 -23.929216142557834 53.91270037597701)"><path d="M0.76 0.05 C-7.27 18.1, -39.74 89.45, -48.08 107.76 M-0.3 -0.97 C-8.43 17.25, -40.28 90.61, -48.62 108.79" stroke="#000000" stroke-width="1" fill="none"></path></g><g transform="translate(1666.186416195109 820.2857142857141) rotate(0 -23.929216142557834 53.91270037597701)"><path d="M-46.89 83.85 C-47.44 92.84, -49.65 98.44, -48.62 108.79 M-46.89 83.85 C-48.03 94.01, -48 102.76, -48.62 108.79" stroke="#000000" stroke-width="1" fill="none"></path></g><g transform="translate(1666.186416195109 820.2857142857141) rotate(0 -23.929216142557834 53.91270037597701)"><path d="M-31.26 90.8 C-36.58 97.75, -43.59 101.22, -48.62 108.79 M-31.26 90.8 C-38.64 98.06, -44.8 104.05, -48.62 108.79" stroke="#000000" stroke-width="1" fill="none"></path></g></g><mask></mask><g transform="translate(1511 1148.5714285714284) rotate(0 31.875 9.199999999999989)"><text x="0" y="14.720312499999999" font-family="Helvetica, Segoe UI Emoji" font-size="16px" fill="#000000" text-anchor="start" style="white-space: pre;" direction="ltr" dominant-baseline="alphabetic">Sharding</text></g><g stroke-linecap="round" transform="translate(1275.5 1076.5714285714284) rotate(0 106.5 88)"><path d="M32 0 C62.1 0.2, 93.97 1.68, 181 0 M32 0 C85.54 0.69, 140.95 0.68, 181 0 M181 0 C204.32 1.88, 214.89 9.66, 213 32 M181 0 C201.31 -2.05, 211.22 9.27, 213 32 M213 32 C214.12 74.97, 212.6 116.33, 213 144 M213 32 C213.67 74.12, 213.17 115.04, 213 144 M213 144 C213.4 164.71, 200.82 176.85, 181 176 M213 144 C213.84 163.23, 201.29 176.31, 181 176 M181 176 C121.53 175.53, 65.65 175.93, 32 176 M181 176 C133.03 176.31, 84.98 176.32, 32 176 M32 176 C10.67 174.65, 1.41 165.96, 0 144 M32 176 C8.42 174.77, -2.15 166.5, 0 144 M0 144 C-0.61 102.93, 0.47 58.22, 0 32 M0 144 C0.29 122.16, 0.08 97.92, 0 32 M0 32 C-1.2 10.07, 11.58 0.08, 32 0 M0 32 C2.18 12.88, 9.96 -0.24, 32 0" stroke="#000000" stroke-width="1" fill="none"></path></g><g transform="translate(1290.3020858764648 1146.1714285714284) rotate(0 91.69791412353516 18.399999999999977)"><text x="91.69791412353516" y="14.720312499999999" font-family="Helvetica, Segoe UI Emoji" font-size="16px" fill="#000000" text-anchor="middle" style="white-space: pre;" direction="ltr" dominant-baseline="alphabetic">DB for storing User, Item, </text><text x="91.69791412353516" y="33.1203125" font-family="Helvetica, Segoe UI Emoji" font-size="16px" fill="#000000" text-anchor="middle" style="white-space: pre;" direction="ltr" dominant-baseline="alphabetic">Bid</text></g><g stroke-linecap="round" transform="translate(1483.5 1218.5714285714284) rotate(0 106.5 88)"><path d="M32 0 C81.08 -2.33, 131.49 -1.39, 181 0 M32 0 C63.81 0.56, 94.21 1.5, 181 0 M181 0 C204.11 1.47, 212.06 11.1, 213 32 M181 0 C202.69 -0.19, 211.02 8.56, 213 32 M213 32 C215.23 56.92, 215.39 86.07, 213 144 M213 32 C212.63 62.3, 213.03 91.85, 213 144 M213 144 C213.47 164.41, 201.75 175.48, 181 176 M213 144 C214.45 167.53, 201.08 176.98, 181 176 M181 176 C128.41 177.22, 76.18 174.09, 32 176 M181 176 C143.56 174.3, 108.68 175.56, 32 176 M32 176 C10.95 175.92, -0.57 166.33, 0 144 M32 176 C9.07 175.42, -0.23 164.26, 0 144 M0 144 C0.7 114.95, -0.99 85.86, 0 32 M0 144 C0.04 121.16, 0 96.98, 0 32 M0 32 C-0.31 8.87, 8.81 1.27, 32 0 M0 32 C1.86 9.97, 8.39 -1.76, 32 0" stroke="#000000" stroke-width="1" fill="none"></path></g><g transform="translate(1498.3020858764648 1288.1714285714284) rotate(0 91.69791412353516 18.399999999999977)"><text x="91.69791412353516" y="14.720312499999999" font-family="Helvetica, Segoe UI Emoji" font-size="16px" fill="#000000" text-anchor="middle" style="white-space: pre;" direction="ltr" dominant-baseline="alphabetic">DB for storing User, Item, </text><text x="91.69791412353516" y="33.1203125" font-family="Helvetica, Segoe UI Emoji" font-size="16px" fill="#000000" text-anchor="middle" style="white-space: pre;" direction="ltr" dominant-baseline="alphabetic">Bid</text></g><g stroke-linecap="round" transform="translate(1875.3571428571427 182.7142857142856) rotate(0 106.5 87.99999999999999)"><path d="M32 0 C62.08 0.86, 93.52 1.1, 181 0 M32 0 C77.06 -0.41, 123.38 -0.62, 181 0 M181 0 C203.45 -1.83, 213.75 9.98, 213 32 M181 0 C204.34 -1.17, 214.57 10.34, 213 32 M213 32 C215.04 76.44, 213.63 118.29, 213 144 M213 32 C213.75 63.09, 213.45 94.21, 213 144 M213 144 C213.45 166.61, 202.56 176.64, 181 176 M213 144 C211.8 167.2, 203.12 173.88, 181 176 M181 176 C129.93 175.4, 77.81 173.92, 32 176 M181 176 C135.85 175.45, 92.61 175.46, 32 176 M32 176 C10.63 176.58, 0.13 165.05, 0 144 M32 176 C10.59 174.32, -1.03 164.73, 0 144 M0 144 C1 114.45, -2.05 82.23, 0 32 M0 144 C-0.1 104.3, -1.07 64.3, 0 32 M0 32 C1.19 12.55, 10.86 0.84, 32 0 M0 32 C0.3 11.67, 12.56 -2.23, 32 0" stroke="#000000" stroke-width="1" fill="none"></path></g><g transform="translate(1932.273810795375 261.51428571428556) rotate(0 49.58333206176758 9.200000000000003)"><text x="49.58333206176758" y="14.720312499999999" font-family="Helvetica, Segoe UI Emoji" font-size="16px" fill="#000000" text-anchor="middle" style="white-space: pre;" direction="ltr" dominant-baseline="alphabetic">Read-only DB</text></g><g stroke-linecap="round" transform="translate(1625.3571428571422 176.99999999999983) rotate(0 106.5 87.99999999999999)"><path d="M32 0 C80.75 1.6, 130 -0.41, 181 0 M32 0 C76.36 0.7, 121.53 0.88, 181 0 M181 0 C200.41 -1.36, 212.96 10.18, 213 32 M181 0 C200.8 0.23, 213.33 9.26, 213 32 M213 32 C212.13 70.3, 215.75 112.75, 213 144 M213 32 C213.39 72.17, 213.31 111.2, 213 144 M213 144 C211.78 166.03, 201.4 174.28, 181 176 M213 144 C212.67 166.41, 201.59 176.45, 181 176 M181 176 C127.69 178.6, 69.51 177.85, 32 176 M181 176 C147.5 177.81, 115.42 176.2, 32 176 M32 176 C11 177.35, 0.92 166.25, 0 144 M32 176 C10.39 174.32, 1.03 166.15, 0 144 M0 144 C-1.92 112.3, -0.71 80.59, 0 32 M0 144 C0.28 107.21, -0.24 69.1, 0 32 M0 32 C1.16 11.31, 12.58 -1.79, 32 0 M0 32 C-1.41 9.41, 8.45 1.3, 32 0" stroke="#000000" stroke-width="1" fill="none"></path></g><g transform="translate(1682.2738107953746 255.79999999999978) rotate(0 49.58333206176758 9.200000000000003)"><text x="49.58333206176758" y="14.720312499999999" font-family="Helvetica, Segoe UI Emoji" font-size="16px" fill="#000000" text-anchor="middle" style="white-space: pre;" direction="ltr" dominant-baseline="alphabetic">Read-only DB</text></g><g stroke-linecap="round" transform="translate(2431.857142857142 692.1428571428569) rotate(0 69.28571428571445 42.85714285714289)"><path d="M21.43 0 C44.9 -1.01, 66.9 -0.37, 117.14 0 M21.43 0 C47.78 -0.27, 75.21 0.31, 117.14 0 M117.14 0 C132.5 1.72, 139.92 5.49, 138.57 21.43 M117.14 0 C133.16 2.26, 138.89 9.2, 138.57 21.43 M138.57 21.43 C139.06 34.02, 136.75 43.63, 138.57 64.29 M138.57 21.43 C138.05 38.21, 138.97 55.48, 138.57 64.29 M138.57 64.29 C137.24 79.84, 130.61 85.56, 117.14 85.71 M138.57 64.29 C140.1 80.56, 133.56 86.04, 117.14 85.71 M117.14 85.71 C93.77 84.66, 71.33 85.43, 21.43 85.71 M117.14 85.71 C84.55 85.41, 52.17 86.87, 21.43 85.71 M21.43 85.71 C5.14 86.95, -0.61 76.62, 0 64.29 M21.43 85.71 C5.99 87.69, 0.58 77.24, 0 64.29 M0 64.29 C-0.17 51.09, -1.42 40.87, 0 21.43 M0 64.29 C-0.45 49.72, -0.69 33.5, 0 21.43 M0 21.43 C-0.93 6.46, 8.57 -0.08, 21.43 0 M0 21.43 C-1.07 5.4, 6.51 0.04, 21.43 0" stroke="#000000" stroke-width="1" fill="none"></path></g><g transform="translate(2465.7053571428564 725.7999999999997) rotate(0 35.4375 9.199999999999989)"><text x="35.4375" y="14.720312499999999" font-family="Helvetica, Segoe UI Emoji" font-size="16px" fill="#000000" text-anchor="middle" style="white-space: pre;" direction="ltr" dominant-baseline="alphabetic">Event bus</text></g><g stroke-linecap="round"><g transform="translate(1771.8571428571427 1096.814400163612) rotate(0 351.48728468698573 -136.69336623183227)"><path d="M0.17 -0.9 C117.34 -46.52, 586.91 -227.55, 704.18 -272.8 M-1.21 1.25 C115.67 -44.81, 585.09 -228.72, 703.01 -274.63" stroke="#000000" stroke-width="1" fill="none"></path></g><g transform="translate(1771.8571428571427 1096.814400163612) rotate(0 351.48728468698573 -136.69336623183227)"><path d="M684.24 -258.12 C690.05 -265.4, 699.9 -272.56, 703.01 -274.63 M684.24 -258.12 C692.17 -263.75, 698.85 -270.4, 703.01 -274.63" stroke="#000000" stroke-width="1" fill="none"></path></g><g transform="translate(1771.8571428571427 1096.814400163612) rotate(0 351.48728468698573 -136.69336623183227)"><path d="M678.01 -274.05 C686.41 -275.03, 698.73 -275.89, 703.01 -274.63 M678.01 -274.05 C688.35 -273.62, 697.39 -274.23, 703.01 -274.63" stroke="#000000" stroke-width="1" fill="none"></path></g></g><mask></mask><g stroke-linecap="round"><g transform="translate(2428.9999999999995 701.0669406657893) rotate(0 -239.6859619736872 -107.81019798860092)"><path d="M0.22 0.62 C-79.75 -35.61, -399.03 -180.32, -478.84 -216.24 M-1.13 -0.09 C-81.31 -35.68, -399.93 -178.93, -479.59 -215.07" stroke="#000000" stroke-width="1" fill="none"></path></g><g transform="translate(2428.9999999999995 701.0669406657893) rotate(0 -239.6859619736872 -107.81019798860092)"><path d="M-454.66 -213.2 C-463.15 -213.24, -474.85 -213.59, -479.59 -215.07 M-454.66 -213.2 C-463.82 -214.44, -471.83 -215.33, -479.59 -215.07" stroke="#000000" stroke-width="1" fill="none"></path></g><g transform="translate(2428.9999999999995 701.0669406657893) rotate(0 -239.6859619736872 -107.81019798860092)"><path d="M-461.69 -197.61 C-467.65 -203.61, -476.67 -209.9, -479.59 -215.07 M-461.69 -197.61 C-468.3 -204.29, -473.84 -210.67, -479.59 -215.07" stroke="#000000" stroke-width="1" fill="none"></path></g></g><mask></mask><g stroke-linecap="round" transform="translate(1358.6428571428573 667.4285714285711) rotate(0 67.5 89.00000000000006)"><path d="M32 0 C53.28 1.18, 78.68 0.82, 103 0 M32 0 C48.45 0.16, 67.2 -0.13, 103 0 M103 0 C123.41 -1.79, 134.21 11.8, 135 32 M103 0 C122.57 1.64, 134.2 8.45, 135 32 M135 32 C134.58 67.7, 135.99 103.28, 135 146 M135 32 C136.58 64.66, 136.5 97.35, 135 146 M135 146 C134.98 165.34, 125.43 176, 103 178 M135 146 C136.22 166.62, 125.76 176.87, 103 178 M103 178 C87.78 176.48, 71.58 178.03, 32 178 M103 178 C87.88 178.7, 74.63 177.88, 32 178 M32 178 C10.85 178.15, -0.62 167.12, 0 146 M32 178 C9.09 176.01, -0.8 166.5, 0 146 M0 146 C-0.17 102.4, -3.12 57.11, 0 32 M0 146 C-0.52 121.65, -0.96 98.42, 0 32 M0 32 C-2 8.79, 9.05 0.29, 32 0 M0 32 C2.12 12.8, 9.41 -2.09, 32 0" stroke="#000000" stroke-width="1" fill="none"></path></g><g transform="translate(1416.4032741274154 747.2285714285712) rotate(0 9.739583015441895 9.199999999999989)"><text x="9.739583015441895" y="14.720312499999999" font-family="Helvetica, Segoe UI Emoji" font-size="16px" fill="#000000" text-anchor="middle" style="white-space: pre;" direction="ltr" dominant-baseline="alphabetic">LB</text></g><g stroke-linecap="round"><g transform="translate(1497.571428571428 789.3529053014139) rotate(0 75.32367722229867 -12.425915497002052)"><path d="M0.71 -1.03 C25.49 -5.19, 124.09 -22.04, 148.67 -25.89 M-0.38 1.04 C24.8 -2.9, 125.88 -20.3, 151.03 -24.82" stroke="#000000" stroke-width="1" fill="none"></path></g><g transform="translate(1497.571428571428 789.3529053014139) rotate(0 75.32367722229867 -12.425915497002052)"><path d="M129.36 -12.34 C134.18 -17.31, 140.86 -21.78, 151.03 -24.82 M129.36 -12.34 C137.61 -15.98, 144.78 -21.13, 151.03 -24.82" stroke="#000000" stroke-width="1" fill="none"></path></g><g transform="translate(1497.571428571428 789.3529053014139) rotate(0 75.32367722229867 -12.425915497002052)"><path d="M126.41 -29.19 C131.97 -29.17, 139.53 -28.64, 151.03 -24.82 M126.41 -29.19 C135.7 -26.54, 143.96 -25.43, 151.03 -24.82" stroke="#000000" stroke-width="1" fill="none"></path></g></g><mask></mask><g transform="translate(450.42857142857133 1008.4142857142854) rotate(0 324.3541564941406 46)"><text x="0" y="18.400390625" font-family="Helvetica, Segoe UI Emoji" font-size="20px" fill="#000000" text-anchor="start" style="white-space: pre;" direction="ltr" dominant-baseline="alphabetic">If we assume 10M auctions a day, there are roughly 100K seconds a day,</text><text x="0" y="41.400390625" font-family="Helvetica, Segoe UI Emoji" font-size="20px" fill="#000000" text-anchor="start" style="white-space: pre;" direction="ltr" dominant-baseline="alphabetic">100 auctions per second.</text><text x="0" y="64.400390625" font-family="Helvetica, Segoe UI Emoji" font-size="20px" fill="#000000" text-anchor="start" style="white-space: pre;" direction="ltr" dominant-baseline="alphabetic"></text><text x="0" y="87.400390625" font-family="Helvetica, Segoe UI Emoji" font-size="20px" fill="#000000" text-anchor="start" style="white-space: pre;" direction="ltr" dominant-baseline="alphabetic">If 1B bids a day, 10k bids per second</text></g><g transform="translate(451.8571428571429 1146.4285714285713) rotate(0 245.1979217529297 11.5)"><text x="0" y="18.400390625" font-family="Helvetica, Segoe UI Emoji" font-size="20px" fill="#000000" text-anchor="start" style="white-space: pre;" direction="ltr" dominant-baseline="alphabetic">Placing bids is going to be a lot more than creating bids</text></g><g stroke-linecap="round" transform="translate(2046.1428571428564 644.9999999999999) rotate(0 58.57142857142867 89.28571428571428)"><path d="M29.29 0 C47.68 -0.87, 63.77 -1.03, 87.86 0 M29.29 0 C41.19 -0.3, 54.02 -0.83, 87.86 0 M87.86 0 C105.47 1.13, 118.48 9.51, 117.14 29.29 M87.86 0 C105.43 0.87, 118.42 11.75, 117.14 29.29 M117.14 29.29 C116.1 75.82, 117.36 117.53, 117.14 149.29 M117.14 29.29 C117.17 56.48, 116.89 84.65, 117.14 149.29 M117.14 149.29 C115.31 169.64, 106.16 180.26, 87.86 178.57 M117.14 149.29 C116.46 170.1, 109.13 178.75, 87.86 178.57 M87.86 178.57 C65.04 177.47, 43.42 177.54, 29.29 178.57 M87.86 178.57 C64.6 178.67, 43.68 178.71, 29.29 178.57 M29.29 178.57 C8.17 176.79, -0.99 169.4, 0 149.29 M29.29 178.57 C8.45 178.26, 2.27 169.86, 0 149.29 M0 149.29 C-2.39 120.75, 0.09 92.79, 0 29.29 M0 149.29 C-0.06 104.74, -0.86 60.32, 0 29.29 M0 29.29 C-1.7 8.09, 11.76 -0.65, 29.29 0 M0 29.29 C1.76 8.48, 10.39 -0.67, 29.29 0" stroke="#000000" stroke-width="1" fill="none"></path></g><g transform="translate(2061.9122036525173 699.7857142857142) rotate(0 42.80208206176758 34.5)"><text x="42.80208206176758" y="18.400390625" font-family="Helvetica, Segoe UI Emoji" font-size="20px" fill="#000000" text-anchor="middle" style="white-space: pre;" direction="ltr" dominant-baseline="alphabetic">Redis for </text><text x="42.80208206176758" y="41.400390625" font-family="Helvetica, Segoe UI Emoji" font-size="20px" fill="#000000" text-anchor="middle" style="white-space: pre;" direction="ltr" dominant-baseline="alphabetic">cached </text><text x="42.80208206176758" y="64.400390625" font-family="Helvetica, Segoe UI Emoji" font-size="20px" fill="#000000" text-anchor="middle" style="white-space: pre;" direction="ltr" dominant-baseline="alphabetic">data</text></g><g stroke-linecap="round"><g transform="translate(1497.5714285714284 717.6519845185451) rotate(0 74.64155903373194 -6.863756325675638)"><path d="M1.06 0.58 C25.84 -1.62, 124.36 -11.78, 149.13 -14.31 M0.16 -0.16 C24.72 -2.06, 123.25 -10.58, 148.06 -12.79" stroke="#000000" stroke-width="1" fill="none"></path></g><g transform="translate(1497.5714285714284 717.6519845185451) rotate(0 74.64155903373194 -6.863756325675638)"><path d="M23.59 -10.26 C16.87 -6.8, 8.26 -2.3, 1.06 0.58 M23.59 -10.26 C16.4 -7.29, 11.05 -4.56, 1.06 0.58" stroke="#000000" stroke-width="1" fill="none"></path></g><g transform="translate(1497.5714285714284 717.6519845185451) rotate(0 74.64155903373194 -6.863756325675638)"><path d="M25.29 6.76 C18.16 4.51, 8.97 3.28, 1.06 0.58 M25.29 6.76 C17.69 5.05, 11.88 3.1, 1.06 0.58" stroke="#000000" stroke-width="1" fill="none"></path></g><g transform="translate(1497.5714285714284 717.6519845185451) rotate(0 74.64155903373194 -6.863756325675638)"><path d="M125.4 -2.23 C134.1 -6.37, 140.69 -9.07, 148.06 -12.79 M125.4 -2.23 C130.7 -5.07, 137.76 -8.21, 148.06 -12.79" stroke="#000000" stroke-width="1" fill="none"></path></g><g transform="translate(1497.5714285714284 717.6519845185451) rotate(0 74.64155903373194 -6.863756325675638)"><path d="M123.91 -19.26 C132.95 -17.68, 140.05 -14.65, 148.06 -12.79 M123.91 -19.26 C129.56 -17.42, 137.03 -15.89, 148.06 -12.79" stroke="#000000" stroke-width="1" fill="none"></path></g></g><mask></mask><g stroke-linecap="round"><g transform="translate(1786.1428571428564 712.7922586287215) rotate(0 129.2992507539459 1.9888865977591763)"><path d="M0.16 0.97 C43.35 1.68, 216.63 3.08, 259.81 3.54 M-1.21 0.43 C41.83 0.86, 215.99 1.54, 259.29 1.79" stroke="#000000" stroke-width="1" fill="none"></path></g><g transform="translate(1786.1428571428564 712.7922586287215) rotate(0 129.2992507539459 1.9888865977591763)"><path d="M23.74 -7.34 C16.9 -3, 8.04 -0.97, 0.16 0.97 M23.74 -7.34 C14.74 -3.07, 6.83 -1.49, 0.16 0.97" stroke="#000000" stroke-width="1" fill="none"></path></g><g transform="translate(1786.1428571428564 712.7922586287215) rotate(0 129.2992507539459 1.9888865977591763)"><path d="M23.57 9.76 C16.89 8.01, 8.09 3.94, 0.16 0.97 M23.57 9.76 C14.69 7.61, 6.84 2.78, 0.16 0.97" stroke="#000000" stroke-width="1" fill="none"></path></g><g transform="translate(1786.1428571428564 712.7922586287215) rotate(0 129.2992507539459 1.9888865977591763)"><path d="M235.76 10.23 C245.81 8.54, 253.74 4.59, 259.29 1.79 M235.76 10.23 C244.49 7.89, 254.26 3.18, 259.29 1.79" stroke="#000000" stroke-width="1" fill="none"></path></g><g transform="translate(1786.1428571428564 712.7922586287215) rotate(0 129.2992507539459 1.9888865977591763)"><path d="M235.84 -6.88 C245.76 -2.47, 253.66 -0.32, 259.29 1.79 M235.84 -6.88 C244.48 -2.8, 254.22 -1.08, 259.29 1.79" stroke="#000000" stroke-width="1" fill="none"></path></g></g><mask></mask><g transform="translate(1451.8571428571431 877.8571428571427) rotate(0 199.5729217529297 11.5)"><text x="0" y="18.400390625" font-family="Helvetica, Segoe UI Emoji" font-size="20px" fill="#000000" text-anchor="start" style="white-space: pre;" direction="ltr" dominant-baseline="alphabetic">Service will publish bid to db for persistence, </text></g><g transform="translate(1940.8704716463253 847.8571428571424) rotate(0 300.53125 32.357142857143)"><text x="0" y="17.257509219720575" font-family="Helvetica, Segoe UI Emoji" font-size="18.757763975155367px" fill="#000000" text-anchor="start" style="white-space: pre;" direction="ltr" dominant-baseline="alphabetic">Publish bid to redis for real time comm, </text><text x="0" y="38.828937791149244" font-family="Helvetica, Segoe UI Emoji" font-size="18.757763975155367px" fill="#000000" text-anchor="start" style="white-space: pre;" direction="ltr" dominant-baseline="alphabetic">can use redis to track winning bid, </text><text x="0" y="60.40036636257791" font-family="Helvetica, Segoe UI Emoji" font-size="18.757763975155367px" fill="#000000" text-anchor="start" style="white-space: pre;" direction="ltr" dominant-baseline="alphabetic">if cache expires -&gt; leads to cache miss and service must query from db  </text></g><g transform="translate(2054.3333333333335 397.1428571428571) rotate(0 150.8333282470703 23)"><text x="0" y="18.400390625" font-family="Helvetica, Segoe UI Emoji" font-size="20px" fill="#000000" text-anchor="start" style="white-space: pre;" direction="ltr" dominant-baseline="alphabetic">Replication for fault tolerance</text><text x="0" y="41.400390625" font-family="Helvetica, Segoe UI Emoji" font-size="20px" fill="#000000" text-anchor="start" style="white-space: pre;" direction="ltr" dominant-baseline="alphabetic">Offloads read traffic from main DB</text></g><g transform="translate(1785.7619047619046 1270) rotate(0 129.5416717529297 11.5)"><text x="0" y="18.400390625" font-family="Helvetica, Segoe UI Emoji" font-size="20px" fill="#000000" text-anchor="start" style="white-space: pre;" direction="ltr" dominant-baseline="alphabetic">Replication for fault tolerance</text></g><g transform="translate(2181.483625866118 1065.6428571428573) rotate(0 147.1354217529297 11.5)"><text x="0" y="18.400390625" font-family="Helvetica, Segoe UI Emoji" font-size="20px" fill="#000000" text-anchor="start" style="white-space: pre;" direction="ltr" dominant-baseline="alphabetic">Stateless and scales horizontally.</text></g><g transform="translate(2093.9940476190477 1098.6428571428573) rotate(0 234.625 11.5)"><text x="0" y="18.400390625" font-family="Helvetica, Segoe UI Emoji" font-size="20px" fill="#000000" text-anchor="start" style="white-space: pre;" direction="ltr" dominant-baseline="alphabetic">Publishes bid updates to Redis for real-time updates.</text></g><g transform="translate(2121.421125866118 1131.6428571428573) rotate(0 207.1979217529297 11.5)"><text x="0" y="18.400390625" font-family="Helvetica, Segoe UI Emoji" font-size="20px" fill="#000000" text-anchor="start" style="white-space: pre;" direction="ltr" dominant-baseline="alphabetic">Writes bid information to the primary database.</text></g><g transform="translate(2302.904761904762 1044.2857142857142) rotate(0 50.57291793823242 11.5)"><text x="0" y="18.400390625" font-family="Helvetica, Segoe UI Emoji" font-size="20px" fill="#000000" text-anchor="start" style="white-space: pre;" direction="ltr" dominant-baseline="alphabetic">Bid Service</text></g><g transform="translate(305.7619047619048 1374.2857142857142) rotate(0 555.7708129882812 11.5)"><text x="0" y="18.400390625" font-family="Helvetica, Segoe UI Emoji" font-size="20px" fill="#000000" text-anchor="start" style="white-space: pre;" direction="ltr" dominant-baseline="alphabetic">In this case, since WebSocket connection is between client and Orchestrator Service, this service needs to subscribe to redis </text></g><g stroke-linecap="round"><g transform="translate(1075.7619047619046 889.9999999999999) rotate(0 67.97499731395999 244.08819930230874)"><path d="M0.38 1.17 C23.31 82.26, 114.1 406.25, 136.84 487.43 M-0.89 0.74 C21.92 81.37, 112.94 404.49, 135.73 485.46" stroke="#000000" stroke-width="1" fill="none"></path></g><g transform="translate(1075.7619047619046 889.9999999999999) rotate(0 67.97499731395999 244.08819930230874)"><path d="M121.13 465.17 C126.72 469.45, 128.73 474.2, 135.73 485.46 M121.13 465.17 C127.53 472.73, 133.44 481.68, 135.73 485.46" stroke="#000000" stroke-width="1" fill="none"></path></g><g transform="translate(1075.7619047619046 889.9999999999999) rotate(0 67.97499731395999 244.08819930230874)"><path d="M137.59 460.53 C139.29 465.97, 137.38 471.82, 135.73 485.46 M137.59 460.53 C137.46 469.93, 136.85 480.71, 135.73 485.46" stroke="#000000" stroke-width="1" fill="none"></path></g></g><mask></mask><g stroke-linecap="round"><g transform="translate(1711.4761904761904 642.8571428571429) rotate(0 34.904872343689135 -59.992812064183596)"><path d="M-0.46 -0.29 C11.44 -20.15, 58.41 -99.98, 70.27 -119.69 M1.5 -1.49 C13.36 -21.2, 58 -99.45, 69.46 -118.74" stroke="#000000" stroke-width="1" fill="none"></path></g><g transform="translate(1711.4761904761904 642.8571428571429) rotate(0 34.904872343689135 -59.992812064183596)"><path d="M65.06 -94.13 C65.59 -98.73, 65.12 -103.08, 69.46 -118.74 M65.06 -94.13 C66.34 -102.15, 67.66 -109.71, 69.46 -118.74" stroke="#000000" stroke-width="1" fill="none"></path></g><g transform="translate(1711.4761904761904 642.8571428571429) rotate(0 34.904872343689135 -59.992812064183596)"><path d="M50.27 -102.72 C53.8 -105.49, 56.37 -108.08, 69.46 -118.74 M50.27 -102.72 C55.93 -108.05, 61.66 -113.04, 69.46 -118.74" stroke="#000000" stroke-width="1" fill="none"></path></g></g><mask></mask><g transform="translate(1801.4761904761904 122.85714285714283) rotate(0 114.52083587646484 11.5)"><text x="0" y="18.400390625" font-family="Helvetica, Segoe UI Emoji" font-size="20px" fill="#000000" text-anchor="start" style="white-space: pre;" direction="ltr" dominant-baseline="alphabetic">Talk about schema for DB</text></g><g transform="translate(2108.6190476190477 145.71428571428567) rotate(0 130.71428571428555 69)"><text x="0" y="18.400390625" font-family="Helvetica, Segoe UI Emoji" font-size="20px" fill="#000000" text-anchor="start" style="white-space: pre;" direction="ltr" dominant-baseline="alphabetic">SQL can ensure atomicity, </text><text x="0" y="41.400390625" font-family="Helvetica, Segoe UI Emoji" font-size="20px" fill="#000000" text-anchor="start" style="white-space: pre;" direction="ltr" dominant-baseline="alphabetic">ensuring bids are processed </text><text x="0" y="64.400390625" font-family="Helvetica, Segoe UI Emoji" font-size="20px" fill="#000000" text-anchor="start" style="white-space: pre;" direction="ltr" dominant-baseline="alphabetic">in correct order.</text><text x="0" y="87.400390625" font-family="Helvetica, Segoe UI Emoji" font-size="20px" fill="#000000" text-anchor="start" style="white-space: pre;" direction="ltr" dominant-baseline="alphabetic"></text><text x="0" y="110.400390625" font-family="Helvetica, Segoe UI Emoji" font-size="20px" fill="#000000" text-anchor="start" style="white-space: pre;" direction="ltr" dominant-baseline="alphabetic">Bid DB can store info </text><text x="0" y="133.400390625" font-family="Helvetica, Segoe UI Emoji" font-size="20px" fill="#000000" text-anchor="start" style="white-space: pre;" direction="ltr" dominant-baseline="alphabetic">associated with each bid.</text></g><g transform="translate(1842.904761904762 10) rotate(0 357.1979064941406 11.5)"><text x="0" y="18.400390625" font-family="Helvetica, Segoe UI Emoji" font-size="20px" fill="#000000" text-anchor="start" style="white-space: pre;" direction="ltr" dominant-baseline="alphabetic">We can have two different databases, an auction data store and a bid data store.</text></g><g transform="translate(1282.904761904762 55.71428571428561) rotate(0 752.2083129882812 11.5)"><text x="0" y="18.400390625" font-family="Helvetica, Segoe UI Emoji" font-size="20px" fill="#000000" text-anchor="start" style="white-space: pre;" direction="ltr" dominant-baseline="alphabetic">Auction DB will store Auction along with registered users, auction status - open/close/cancelled, final price, auction expire time ( in local datetime ) and current highest bid.</text></g><g transform="translate(844.3333333333335 461.4285714285714) rotate(0 316.7395935058594 23)"><text x="0" y="18.400390625" font-family="Helvetica, Segoe UI Emoji" font-size="20px" fill="#000000" text-anchor="start" style="white-space: pre;" direction="ltr" dominant-baseline="alphabetic">We can also split BidService into two, one for BidPosting, </text><text x="0" y="41.400390625" font-family="Helvetica, Segoe UI Emoji" font-size="20px" fill="#000000" text-anchor="start" style="white-space: pre;" direction="ltr" dominant-baseline="alphabetic">and another for BidReading, this allows us to scale them independently.</text></g><g transform="translate(1777.1904761904761 575.7142857142856) rotate(0 167.34375 11.5)"><text x="0" y="18.400390625" font-family="Helvetica, Segoe UI Emoji" font-size="20px" fill="#000000" text-anchor="start" style="white-space: pre;" direction="ltr" dominant-baseline="alphabetic">Consider redis cache, for highest bids</text></g></svg>